<svg xmlns="http://www.w3.org/2000/svg" xmlns:xlink="http://www.w3.org/1999/xlink" contentStyleType="text/css" height="316px" preserveAspectRatio="none" style="width:530px;height:316px;background:#FFFFFF;" version="1.1" viewBox="0 0 530 316" width="530px" zoomAndPan="magnify"><defs/><g><!--class Livro--><g id="elem_Livro"><rect codeLine="1" fill="#F1F1F1" height="129.4844" id="Livro" rx="2.5" ry="2.5" style="stroke:#181818;stroke-width:0.5;" width="516.6016" x="7" y="180.19"/><ellipse cx="243.9028" cy="196.19" fill="#ADD1B2" rx="11" ry="11" style="stroke:#181818;stroke-width:1;"/><path d="M246.8716,201.8306 Q246.2935,202.1275 245.6528,202.2681 Q245.0122,202.4244 244.3091,202.4244 Q241.8091,202.4244 240.481,200.7838 Q239.1685,199.1275 239.1685,196.0025 Q239.1685,192.8775 240.481,191.2213 Q241.8091,189.565 244.3091,189.565 Q245.0122,189.565 245.6528,189.7213 Q246.3091,189.8775 246.8716,190.1744 L246.8716,192.8931 Q246.2466,192.315 245.6528,192.0494 Q245.0591,191.7681 244.4341,191.7681 Q243.0903,191.7681 242.4028,192.8463 Q241.7153,193.9088 241.7153,196.0025 Q241.7153,198.0963 242.4028,199.1744 Q243.0903,200.2369 244.4341,200.2369 Q245.0591,200.2369 245.6528,199.9713 Q246.2466,199.69 246.8716,199.1119 L246.8716,201.8306 Z " fill="#000000"/><text fill="#000000" font-family="sans-serif" font-size="14" lengthAdjust="spacing" textLength="34.2959" x="264.4028" y="201.0367">Livro</text><line style="stroke:#181818;stroke-width:0.5;" x1="8" x2="522.6016" y1="212.19" y2="212.19"/><rect fill="none" height="6" style="stroke:#C82930;stroke-width:1;" width="6" x="15" y="222.8384"/><text fill="#000000" font-family="sans-serif" font-size="14" lengthAdjust="spacing" textLength="110.2979" x="27" y="229.1851">codigo: number</text><rect fill="none" height="6" style="stroke:#C82930;stroke-width:1;" width="6" x="15" y="239.1353"/><text fill="#000000" font-family="sans-serif" font-size="14" lengthAdjust="spacing" textLength="85.5518" x="27" y="245.482">titulo: string</text><rect fill="none" height="6" style="stroke:#C82930;stroke-width:1;" width="6" x="15" y="255.4322"/><text fill="#000000" font-family="sans-serif" font-size="14" lengthAdjust="spacing" textLength="86.6182" x="27" y="261.7789">autor: string</text><rect fill="none" height="6" style="stroke:#C82930;stroke-width:1;" width="6" x="15" y="271.7291"/><text fill="#000000" font-family="sans-serif" font-size="14" lengthAdjust="spacing" textLength="136.2129" x="27" y="278.0757">disponivel: boolean</text><line style="stroke:#181818;stroke-width:0.5;" x1="8" x2="522.6016" y1="285.3775" y2="285.3775"/><ellipse cx="18" cy="299.0259" fill="#84BE84" rx="3" ry="3" style="stroke:#038048;stroke-width:1;"/><text fill="#000000" font-family="sans-serif" font-size="14" lengthAdjust="spacing" textLength="490.6016" x="27" y="302.3726">Livro(codigo: number, titulo: string, autor: string, disponivel: boolean)</text></g><!--class Biblioteca--><g id="elem_Biblioteca"><rect codeLine="9" fill="#F1F1F1" height="113.1875" id="Biblioteca" rx="2.5" ry="2.5" style="stroke:#181818;stroke-width:0.5;" width="385.0781" x="72.76" y="7"/><ellipse cx="226.4968" cy="23" fill="#ADD1B2" rx="11" ry="11" style="stroke:#181818;stroke-width:1;"/><path d="M229.4656,28.6406 Q228.8874,28.9375 228.2468,29.0781 Q227.6062,29.2344 226.9031,29.2344 Q224.4031,29.2344 223.0749,27.5938 Q221.7624,25.9375 221.7624,22.8125 Q221.7624,19.6875 223.0749,18.0313 Q224.4031,16.375 226.9031,16.375 Q227.6062,16.375 228.2468,16.5313 Q228.9031,16.6875 229.4656,16.9844 L229.4656,19.7031 Q228.8406,19.125 228.2468,18.8594 Q227.6531,18.5781 227.0281,18.5781 Q225.6843,18.5781 224.9968,19.6563 Q224.3093,20.7188 224.3093,22.8125 Q224.3093,24.9063 224.9968,25.9844 Q225.6843,27.0469 227.0281,27.0469 Q227.6531,27.0469 228.2468,26.7813 Q228.8406,26.5 229.4656,25.9219 L229.4656,28.6406 Z " fill="#000000"/><text fill="#000000" font-family="sans-serif" font-size="14" lengthAdjust="spacing" textLength="69.1045" x="246.9968" y="27.8467">Biblioteca</text><line style="stroke:#181818;stroke-width:0.5;" x1="73.76" x2="456.8381" y1="39" y2="39"/><rect fill="none" height="6" style="stroke:#C82930;stroke-width:1;" width="6" x="80.76" y="49.6484"/><text fill="#000000" font-family="sans-serif" font-size="14" lengthAdjust="spacing" textLength="101.8828" x="92.76" y="55.9951">acervo: Livro[]</text><line style="stroke:#181818;stroke-width:0.5;" x1="73.76" x2="456.8381" y1="63.2969" y2="63.2969"/><ellipse cx="83.76" cy="76.9453" fill="#84BE84" rx="3" ry="3" style="stroke:#038048;stroke-width:1;"/><text fill="#000000" font-family="sans-serif" font-size="14" lengthAdjust="spacing" textLength="222.5781" x="92.76" y="80.292">adicionarLivro(livro: Livro): void</text><ellipse cx="83.76" cy="93.2422" fill="#84BE84" rx="3" ry="3" style="stroke:#038048;stroke-width:1;"/><text fill="#000000" font-family="sans-serif" font-size="14" lengthAdjust="spacing" textLength="304.6504" x="92.76" y="96.5889">registrarEmprestimo(codigo: number): void</text><ellipse cx="83.76" cy="109.5391" fill="#84BE84" rx="3" ry="3" style="stroke:#038048;stroke-width:1;"/><text fill="#000000" font-family="sans-serif" font-size="14" lengthAdjust="spacing" textLength="359.0781" x="92.76" y="112.8857">consultarDisponibilidade(codigo: number): boolean</text></g><!--reverse link Biblioteca to Livro--><g id="link_Biblioteca_Livro"><path codeLine="16" d="M265.3,132.35 C265.3,151.17 265.3,160.32 265.3,179.74 " fill="none" id="Biblioteca-backto-Livro" style="stroke:#181818;stroke-width:1;"/><polygon fill="none" points="265.3,120.35,261.3,126.35,265.3,132.35,269.3,126.35,265.3,120.35" style="stroke:#181818;stroke-width:1;"/><text fill="#000000" font-family="sans-serif" font-size="13" lengthAdjust="spacing" textLength="8.271" x="256.8291" y="140.2562">1</text><text fill="#000000" font-family="sans-serif" font-size="13" lengthAdjust="spacing" textLength="6.5" x="259.0163" y="169.3174">*</text></g><!--SRC=[RP2n3i8m34JtVeNLYK8xi7P4iF47YC5DeifI6YCdwOBuTq8R42ruo70-tpr5MVGUpZGAmxs0D0qerjHp2ouEdP4i1WhH9j478TTd4MDWMMcQ_8qTZSQsq35RWsxQxEQMpJAzNWNNoypwNrnLF8f2JU07wYnnC0e_zAYCZ2blQhjSSpTgKiGEPOQmhpTxgXP69fsDOdfAtIYduIR61nhMo4k_OkUZ3IZ76RGZIngr-JrwVqQ2_y8kzoLmqq2vBMUS9m00]--></g></svg>